<svg width="100" height="83" viewBox="0 0 100 83" fill="none" xmlns="http://www.w3.org/2000/svg">
<g clip-path="url(#clip0)">
<path d="M52.5203 39.0561V-0.657687C52.5203 -2.00789 51.4402 -3.08804 50.09 -3.08804C48.7398 -3.08804 47.6596 -2.00789 47.6596 -0.657687V39.0561C42.0248 40.1903 37.7582 45.177 37.7582 51.1539C37.7582 57.1308 42.0248 62.1175 47.6596 63.2517V80.9303C47.6596 82.2805 48.7398 83.3606 50.09 83.3606C51.4402 83.3606 52.5203 82.2805 52.5203 80.9303V63.2517C58.1552 62.1175 62.4218 57.1308 62.4218 51.1539C62.4218 45.195 58.1732 40.1903 52.5203 39.0561ZM50.09 58.625C45.9674 58.625 42.6189 55.2765 42.6189 51.1539C42.6189 47.0313 45.9674 43.6828 50.09 43.6828C54.2126 43.6828 57.5611 47.0313 57.5611 51.1539C57.5611 55.2765 54.2126 58.625 50.09 58.625Z" fill="#EA1D2C"/>
<path d="M22.7622 18.6771V-0.657718C22.7622 -2.00792 21.682 -3.08807 20.3318 -3.08807C18.9816 -3.08807 17.9015 -2.00792 17.9015 -0.657718V18.6771C12.2666 19.8113 8 24.798 8 30.7749C8 36.7518 12.2666 41.7385 17.9015 42.8727V80.9302C17.9015 82.2804 18.9816 83.3606 20.3318 83.3606C21.682 83.3606 22.7622 82.2804 22.7622 80.9302V42.8547C28.397 41.7205 32.6636 36.7338 32.6636 30.7569C32.6636 24.78 28.397 19.8113 22.7622 18.6771ZM20.3318 38.246C16.2092 38.246 12.8607 34.8975 12.8607 30.7749C12.8607 26.6523 16.2092 23.3038 20.3318 23.3038C24.4544 23.3038 27.8029 26.6523 27.8029 30.7749C27.8029 34.8975 24.4364 38.246 20.3318 38.246Z" fill="#EA1D2C"/>
<path d="M82.0986 18.6771V-0.657687C82.0986 -2.00789 81.0184 -3.08804 79.6682 -3.08804C78.318 -3.08804 77.2379 -2.00789 77.2379 -0.657687V18.6771C71.6031 19.8113 67.3364 24.798 67.3364 30.7749C67.3364 36.7518 71.6031 41.7385 77.2379 42.8727V80.9483C77.2379 82.2985 78.318 83.3786 79.6682 83.3786C81.0184 83.3786 82.0986 82.2985 82.0986 80.9483V42.8547C87.7334 41.7205 92 36.7338 92 30.7569C92 24.78 87.7514 19.8113 82.0986 18.6771ZM79.6682 38.246C75.5456 38.246 72.1971 34.8975 72.1971 30.7749C72.1971 26.6523 75.5456 23.3038 79.6682 23.3038C83.7908 23.3038 87.1393 26.6523 87.1393 30.7749C87.1393 34.8975 83.7908 38.246 79.6682 38.246Z" fill="#EA1D2C"/>
</g>
<defs>
<clipPath id="clip0">
<rect width="100" height="83" fill="white"/>
</clipPath>
</defs>
</svg>
