<svg width="79" height="78" viewBox="0 0 79 78" fill="none" xmlns="http://www.w3.org/2000/svg">
<path d="M77.5598 0.453117C77.2764 0.169582 76.8834 0.00671387 76.4828 0.00671387C76.0821 0.00671387 75.6892 0.169735 75.4058 0.453117C75.1224 0.736499 74.9594 1.12958 74.9594 1.53012C74.9594 1.93082 75.1224 2.32374 75.4058 2.60697C75.6892 2.89188 76.0823 3.05353 76.4828 3.05353C76.8835 3.05353 77.2764 2.89203 77.5598 2.60697C77.8447 2.32374 78.0062 1.93066 78.0062 1.53012C78.0062 1.12958 77.8447 0.736499 77.5598 0.453117Z" fill="#EA1D2C"/>
<path d="M59.4117 25.1376H53.7649C54.4412 24.0986 54.8357 22.8604 54.8357 21.5308C54.8357 17.8738 51.8605 14.8986 48.2035 14.8986C45.7787 14.8986 43.6547 16.2073 42.4979 18.1549C41.5376 17.3885 40.3221 16.9287 39.0007 16.9287C37.6793 16.9287 36.464 17.3885 35.5035 18.1549C34.3468 16.2073 32.2228 14.8986 29.798 14.8986C26.141 14.8986 23.1657 17.8738 23.1657 21.5308C23.1657 22.8601 23.5603 24.0983 24.2365 25.1375H18.5899C16.5722 25.1375 14.9309 26.7788 14.9309 28.7966V34.1228C14.9309 35.4736 15.6671 36.6548 16.759 37.2888V62.3071C16.759 65.164 19.0832 67.4882 21.9402 67.4882H56.0614C58.9182 67.4882 61.2424 65.164 61.2424 62.3071V37.2889C62.3342 36.655 63.0705 35.4738 63.0705 34.123V28.7968C63.0707 26.7791 61.4292 25.1376 59.4117 25.1376ZM44.6181 21.5309C44.6181 19.5538 46.2265 17.9455 48.2036 17.9455C50.1807 17.9455 51.7892 19.5541 51.7892 21.5311C51.7892 23.508 50.1807 25.1165 48.2036 25.1165H44.6181V21.5309ZM46.1826 28.1845L50.809 36.3372L49.7195 36.0446C49.3289 35.9401 48.9131 35.9945 48.563 36.1967C48.2129 36.3989 47.9574 36.7319 47.853 37.1223L47.5866 38.1178L41.9994 28.1843H46.1826V28.1845ZM39.001 19.9757C40.4184 19.9757 41.5714 21.1285 41.5714 22.5459C41.5714 23.9633 40.4184 25.1163 39.001 25.1163C37.5836 25.1163 36.4306 23.9633 36.4306 22.5459C36.4306 21.1285 37.5835 19.9757 39.001 19.9757ZM36.141 28.1845L31.4777 36.3343L31.2013 35.3011C31.0968 34.9107 30.8414 34.5778 30.4913 34.3756C30.1412 34.1736 29.7254 34.1189 29.3348 34.2235L28.256 34.513L31.8654 28.1845H36.141ZM29.7983 17.9455C31.7754 17.9455 33.3838 19.5539 33.3838 21.5309V25.1165H29.7983C27.8211 25.1165 26.2127 23.5079 26.2127 21.5309C26.2127 19.5539 27.8213 17.9455 29.7983 17.9455ZM17.978 34.1228V28.7968C17.978 28.4592 18.2527 28.1845 18.5903 28.1845H28.3579L24.622 34.7351H18.5903C18.2527 34.7351 17.978 34.4604 17.978 34.1228ZM41.743 64.4415H21.9402C20.7634 64.4415 19.806 63.4841 19.806 62.3071V37.782H23.864C23.882 37.8086 23.8971 37.8365 23.9169 37.8621C24.2924 38.3487 24.9238 38.5619 25.5177 38.4027L28.6518 37.5617L29.4903 40.6965C29.6499 41.293 30.1537 41.7341 30.7657 41.8136C30.8315 41.8221 30.8972 41.8262 30.9624 41.8262C31.5036 41.8262 32.0105 41.5375 32.2842 41.0596L33.2116 39.4387V54.8443C33.2116 55.6855 33.8937 56.3677 34.735 56.3677C35.5764 56.3677 36.2584 55.6855 36.2584 54.8443V37.8717H41.7427V64.4415H41.743ZM35.852 34.8249L39.0728 29.1961L42.2387 34.8249H35.852ZM58.1957 62.3071C58.1957 63.4839 57.2383 64.4415 56.0614 64.4415H44.7898V39.3608L46.764 42.871C47.0361 43.3547 47.546 43.6475 48.0913 43.6475C48.1547 43.6475 48.2184 43.6437 48.2824 43.6355C48.897 43.5579 49.4033 43.1161 49.5634 42.5178L50.402 39.3829L53.5362 40.2239C54.1295 40.3831 54.7602 40.1706 55.1361 39.6847C55.512 39.1989 55.5592 38.5349 55.2562 38.0006L55.132 37.7818H58.1957V62.3071ZM60.0238 34.123C60.0238 34.4606 59.7491 34.7353 59.4115 34.7353H53.4029L49.6857 28.1846H59.4115C59.7491 28.1845 60.0238 28.4592 60.0238 28.7968V34.123Z" fill="#EA1D2C"/>
<path d="M35.8126 59.3265C35.5292 59.0431 35.1361 58.8816 34.7356 58.8816C34.3349 58.8816 33.9419 59.0431 33.6586 59.3265C33.3752 59.6099 33.2122 60.0029 33.2122 60.405C33.2122 60.8057 33.3752 61.1986 33.6586 61.482C33.9419 61.7652 34.335 61.9284 34.7356 61.9284C35.1363 61.9284 35.5292 61.7654 35.8126 61.482C36.096 61.1971 36.259 60.8055 36.259 60.405C36.2588 60.0029 36.0958 59.6114 35.8126 59.3265Z" fill="#EA1D2C"/>
<path d="M73.5611 4.45287C72.9663 3.85808 72.0016 3.85808 71.4067 4.45287L57.4231 18.4367C56.8284 19.0318 56.8284 19.9964 57.4231 20.5913C57.7207 20.8887 58.1106 21.0376 58.5003 21.0376C58.89 21.0376 59.2801 20.8887 59.5775 20.5913L73.5611 6.60749C74.1561 6.01254 74.1561 5.04798 73.5611 4.45287Z" fill="#EA1D2C"/>
<path d="M15.2468 13.3967L6.6394 4.78947C6.04445 4.19467 5.07989 4.19467 4.48479 4.78947C3.88984 5.38442 3.88984 6.34898 4.48479 6.94408L13.0921 15.5513C13.3897 15.8487 13.7796 15.9975 14.1693 15.9975C14.559 15.9975 14.949 15.8487 15.2464 15.5513C15.8415 14.9563 15.8415 13.9918 15.2468 13.3967Z" fill="#EA1D2C"/>
<path d="M14.5547 63.5993C13.9599 63.0045 12.9954 63.0045 12.4003 63.5993L0.600601 75.3991C0.00565097 75.994 0.00565097 76.9586 0.600601 77.5537C0.898152 77.8511 1.28803 78 1.67776 78C2.06748 78 2.45751 77.8511 2.75491 77.5537L14.5547 65.7539C15.1497 65.1589 15.1497 64.1944 14.5547 63.5993Z" fill="#EA1D2C"/>
<path d="M73.7432 71.5882L66.1377 63.9828C65.5428 63.388 64.5782 63.388 63.9833 63.9828C63.3883 64.5777 63.3883 65.5423 63.9833 66.1374L71.5887 73.7429C71.8863 74.0403 72.2761 74.1891 72.6659 74.1891C73.0556 74.1891 73.4456 74.0403 73.743 73.7429C74.3381 73.1479 74.3381 72.1833 73.7432 71.5882Z" fill="#EA1D2C"/>
<path d="M10.1306 37.4772H1.52341C0.682097 37.4772 0 38.1595 0 39.0007C0 39.8418 0.682097 40.5241 1.52341 40.5241H10.1306C10.9719 40.5241 11.654 39.842 11.654 39.0007C11.654 38.1595 10.9721 37.4772 10.1306 37.4772Z" fill="#EA1D2C"/>
<path d="M76.4747 37.4772H67.7849C66.9436 37.4772 66.2615 38.1595 66.2615 39.0007C66.2615 39.8418 66.9436 40.5241 67.7849 40.5241H76.4747C77.316 40.5241 77.9981 39.842 77.9981 39.0007C77.9981 38.1595 77.3162 37.4772 76.4747 37.4772Z" fill="#EA1D2C"/>
<path d="M39.0013 0C38.1599 0 37.4778 0.68225 37.4778 1.52341V13.2029C37.4778 14.044 38.1599 14.7263 39.0013 14.7263C39.8426 14.7263 40.5247 14.044 40.5247 13.2029V1.52325C40.5245 0.682097 39.8426 0 39.0013 0Z" fill="#EA1D2C"/>
<path d="M39.0013 69.1293C38.1599 69.1293 37.4778 69.8116 37.4778 70.6527V76.4765C37.4778 77.3177 38.1599 78 39.0013 78C39.8426 78 40.5247 77.3177 40.5247 76.4765V70.6527C40.5245 69.8113 39.8426 69.1293 39.0013 69.1293Z" fill="#EA1D2C"/>
<path d="M76.4768 53.9117H75.4319C74.5906 53.9117 73.9085 54.594 73.9085 55.4351C73.9085 56.2763 74.5906 56.9585 75.4319 56.9585H76.4768C77.3181 56.9585 78.0002 56.2763 78.0002 55.4351C78.0002 54.594 77.3182 53.9117 76.4768 53.9117Z" fill="#EA1D2C"/>
<path d="M69.0849 53.9117H68.04C67.1987 53.9117 66.5166 54.594 66.5166 55.4351C66.5166 56.2763 67.1987 56.9585 68.04 56.9585H69.0849C69.9262 56.9585 70.6083 56.2763 70.6083 55.4351C70.6083 54.594 69.9263 53.9117 69.0849 53.9117Z" fill="#EA1D2C"/>
<path d="M72.2584 57.085C71.4171 57.085 70.735 57.7672 70.735 58.6084V59.6533C70.735 60.4944 71.4171 61.1767 72.2584 61.1767C73.0997 61.1767 73.7818 60.4944 73.7818 59.6533V58.6084C73.7818 57.7671 73.0997 57.085 72.2584 57.085Z" fill="#EA1D2C"/>
<path d="M72.2584 49.6935C71.4171 49.6935 70.735 50.3758 70.735 51.2169V52.2618C70.735 53.1029 71.4171 53.7852 72.2584 53.7852C73.0997 53.7852 73.7818 53.1031 73.7818 52.2618V51.2169C73.7818 50.3756 73.0997 49.6935 72.2584 49.6935Z" fill="#EA1D2C"/>
<path d="M10.1231 24.226H9.07828C8.23697 24.226 7.55487 24.9082 7.55487 25.7494C7.55487 26.5905 8.23697 27.2728 9.07828 27.2728H10.1231C10.9644 27.2728 11.6465 26.5907 11.6465 25.7494C11.6465 24.9082 10.9646 24.226 10.1231 24.226Z" fill="#EA1D2C"/>
<path d="M2.73187 24.226H1.68701C0.845702 24.226 0.163605 24.9082 0.163605 25.7494C0.163605 26.5905 0.845702 27.2728 1.68701 27.2728H2.73187C3.57318 27.2728 4.25528 26.5907 4.25528 25.7494C4.25528 24.9082 3.57333 24.226 2.73187 24.226Z" fill="#EA1D2C"/>
<path d="M5.90536 27.3994C5.06406 27.3994 4.38196 28.0816 4.38196 28.9228V29.9675C4.38196 30.8087 5.06406 31.4909 5.90536 31.4909C6.74667 31.4909 7.42877 30.8087 7.42877 29.9675V28.9228C7.42877 28.0813 6.74667 27.3994 5.90536 27.3994Z" fill="#EA1D2C"/>
<path d="M5.90536 20.0077C5.06406 20.0077 4.38196 20.6899 4.38196 21.5311V22.5758C4.38196 23.4169 5.06406 24.0992 5.90536 24.0992C6.74667 24.0992 7.42877 23.4169 7.42877 22.5758V21.5311C7.42877 20.6898 6.74667 20.0077 5.90536 20.0077Z" fill="#EA1D2C"/>
<path d="M56.9261 2.99763C54.4062 2.99763 52.3559 5.04789 52.3559 7.56786C52.3559 10.0878 54.4062 12.1381 56.9261 12.1381C59.4461 12.1381 61.4963 10.0878 61.4963 7.56786C61.4963 5.04789 59.4462 2.99763 56.9261 2.99763ZM56.9261 9.09126C56.0862 9.09126 55.4027 8.40779 55.4027 7.56786C55.4027 6.72792 56.0862 6.04445 56.9261 6.04445C57.7661 6.04445 58.4495 6.72792 58.4495 7.56786C58.4495 8.40779 57.7662 9.09126 56.9261 9.09126Z" fill="#EA1D2C"/>
<path d="M6.55429 50.8649C4.03432 50.8649 1.98407 52.9152 1.98407 55.4352C1.98407 57.9551 4.03432 60.0054 6.55429 60.0054C9.07426 60.0054 11.1245 57.9551 11.1245 55.4352C11.1245 52.9152 9.07426 50.8649 6.55429 50.8649ZM6.55429 56.9586C5.71435 56.9586 5.03088 56.2751 5.03088 55.4352C5.03088 54.5952 5.71435 53.9118 6.55429 53.9118C7.39423 53.9118 8.0777 54.5952 8.0777 55.4352C8.0777 56.2751 7.39423 56.9586 6.55429 56.9586Z" fill="#EA1D2C"/>
<path d="M58.004 71.0995C57.7206 70.816 57.3275 70.6531 56.927 70.6531C56.5248 70.6531 56.1334 70.816 55.8484 71.0995C55.5651 71.3827 55.4036 71.7758 55.4036 72.1765C55.4036 72.5772 55.5651 72.9685 55.8484 73.2534C56.1334 73.5367 56.5264 73.6999 56.927 73.6999C57.3275 73.6999 57.7206 73.5369 58.004 73.2534C58.2874 72.9685 58.4504 72.5771 58.4504 72.1765C58.4502 71.7758 58.2872 71.3827 58.004 71.0995Z" fill="#EA1D2C"/>
<path d="M25.1488 71.0995C24.8654 70.816 24.4724 70.6531 24.0718 70.6531C23.6711 70.6531 23.2782 70.816 22.9948 71.0995C22.7114 71.3827 22.5484 71.7744 22.5484 72.1765C22.5484 72.5772 22.7114 72.9685 22.9948 73.2534C23.2782 73.5367 23.6713 73.6999 24.0718 73.6999C24.4725 73.6999 24.8654 73.5369 25.1488 73.2534C25.4322 72.9685 25.5952 72.5771 25.5952 72.1765C25.5952 71.7743 25.4322 71.3827 25.1488 71.0995Z" fill="#EA1D2C"/>
<path d="M26.1982 6.53451C25.9149 6.25128 25.5218 6.0881 25.1212 6.0881C24.7205 6.0881 24.3276 6.25113 24.0442 6.53451C23.7609 6.81789 23.5978 7.21097 23.5978 7.61151C23.5978 8.01373 23.7609 8.40513 24.0442 8.68851C24.3276 8.97342 24.7207 9.13492 25.1212 9.13492C25.5219 9.13492 25.9149 8.97327 26.1982 8.68851C26.4816 8.40513 26.6447 8.01343 26.6447 7.61151C26.6447 7.21097 26.4816 6.81941 26.1982 6.53451Z" fill="#EA1D2C"/>
<path d="M73.2151 23.7566C72.9317 23.4717 72.5386 23.3102 72.1381 23.3102C71.7374 23.3102 71.3445 23.4717 71.0611 23.7566C70.7777 24.04 70.6147 24.4317 70.6147 24.8336C70.6147 25.2343 70.7777 25.6257 71.0611 25.9106C71.3445 26.1938 71.7376 26.357 72.1381 26.357C72.5388 26.357 72.9317 26.194 73.2151 25.9106C73.4985 25.6257 73.6615 25.2341 73.6615 24.8336C73.6615 24.4315 73.4985 24.04 73.2151 23.7566Z" fill="#EA1D2C"/>
</svg>
