<svg width="67" height="73" viewBox="0 0 67 73" fill="none" xmlns="http://www.w3.org/2000/svg">
<g clip-path="url(#clip0)">
<path d="M46.2842 12.0051C46.1912 12.0051 46.097 11.9951 46.0063 11.9767C45.9149 11.9582 45.8253 11.9309 45.7395 11.8951C45.6526 11.8594 45.5696 11.8153 45.4928 11.7634C45.4142 11.712 45.3418 11.6523 45.2761 11.5864C45.2104 11.5206 45.1508 11.448 45.0979 11.3693C45.0478 11.2922 45.0038 11.209 44.9681 11.122C44.9325 11.036 44.9041 10.9461 44.8868 10.8545C44.8684 10.763 44.8584 10.6686 44.8584 10.576C44.8584 10.4833 44.8684 10.389 44.8868 10.2957C44.9041 10.2058 44.9325 10.116 44.9681 10.0289C45.0038 9.9429 45.0478 9.85972 45.0979 9.78268C45.1508 9.70396 45.2104 9.63139 45.2761 9.56551C45.3418 9.49964 45.4142 9.4399 45.4928 9.38687C45.5696 9.33551 45.6526 9.29141 45.7395 9.25568C45.8253 9.21995 45.9149 9.19259 46.0063 9.17417C46.1901 9.13677 46.3783 9.13677 46.5621 9.17417C46.6534 9.19259 46.7431 9.21995 46.8289 9.25568C46.9158 9.29141 46.9982 9.33551 47.0756 9.38687C47.1536 9.4399 47.2265 9.49964 47.2923 9.56551C47.358 9.63139 47.4176 9.70396 47.4688 9.78268C47.52 9.85972 47.5646 9.9429 47.6002 10.0289C47.6359 10.116 47.6626 10.2058 47.6816 10.2957C47.6999 10.389 47.71 10.4833 47.71 10.576C47.71 10.6686 47.6999 10.763 47.6816 10.8545C47.6626 10.9461 47.6359 11.036 47.6002 11.122C47.5646 11.209 47.52 11.2922 47.4688 11.3693C47.4176 11.448 47.358 11.5206 47.2923 11.5864C47.2265 11.6523 47.1536 11.712 47.0756 11.7634C46.9982 11.8153 46.9158 11.8594 46.8289 11.8951C46.7431 11.9309 46.6534 11.9582 46.5621 11.9767C46.4708 11.9951 46.3766 12.0051 46.2842 12.0051Z" fill="#EA1D2C"/>
<path d="M48.7542 0H16.2475C13.3542 0 11 2.35981 11 5.26003V67.9137C11 70.8139 13.3542 73.1737 16.2475 73.1737H48.7542C51.6481 73.1737 54.0023 70.8139 54.0023 67.9137V5.26003C54.0023 2.35981 51.6481 0 48.7542 0ZM51.1508 67.9137C51.1508 69.2379 50.0759 70.3154 48.7542 70.3154H16.2475C14.9265 70.3154 13.8516 69.2379 13.8516 67.9137V12.0045H40.2486C41.0355 12.0045 41.6743 11.3647 41.6743 10.5753C41.6743 9.78649 41.0355 9.14616 40.2486 9.14616H13.8516V5.26003C13.8516 3.93581 14.9265 2.85835 16.2475 2.85835H48.7542C50.0759 2.85835 51.1508 3.93581 51.1508 5.26003V56.8811H21.8081C21.0206 56.8811 20.3823 57.5209 20.3823 58.3103C20.3823 59.0997 21.0206 59.7395 21.8081 59.7395H51.1508V67.9137Z" fill="#EA1D2C"/>
<path d="M32.5009 69.3149C30.1428 69.3149 28.2235 67.3917 28.2235 65.0274C28.2235 62.6637 30.1428 60.7399 32.5009 60.7399C34.8596 60.7399 36.7782 62.6637 36.7782 65.0274C36.7782 67.3917 34.8596 69.3149 32.5009 69.3149ZM32.5009 63.5982C31.715 63.5982 31.0751 64.2397 31.0751 65.0274C31.0751 65.8157 31.715 66.4566 32.5009 66.4566C33.2873 66.4566 33.9267 65.8157 33.9267 65.0274C33.9267 64.2397 33.2873 63.5982 32.5009 63.5982Z" fill="#EA1D2C"/>
<path d="M29.6493 33.1664H18.2242C17.4366 33.1664 16.7984 32.5266 16.7984 31.7372V20.2854C16.7984 19.496 17.4366 18.8562 18.2242 18.8562H29.6493C30.4368 18.8562 31.0751 19.496 31.0751 20.2854V31.7372C31.0751 32.5266 30.4368 33.1664 29.6493 33.1664ZM19.6499 30.308H28.2235V21.7146H19.6499V30.308Z" fill="#EA1D2C"/>
<path d="M46.7777 33.1664H35.353C34.5655 33.1664 33.9272 32.5266 33.9272 31.7372V20.2854C33.9272 19.496 34.5655 18.8562 35.353 18.8562H46.7777C47.5652 18.8562 48.2034 19.496 48.2034 20.2854V31.7372C48.2034 32.5266 47.5652 33.1664 46.7777 33.1664ZM36.7788 30.308H45.3519V21.7146H36.7788V30.308Z" fill="#EA1D2C"/>
<path d="M29.6493 50.3359H18.2242C17.4366 50.3359 16.7984 49.6962 16.7984 48.9068V37.4543C16.7984 36.6649 17.4366 36.0251 18.2242 36.0251H29.6493C30.4368 36.0251 31.0751 36.6649 31.0751 37.4543V48.9068C31.0751 49.6962 30.4368 50.3359 29.6493 50.3359ZM19.6499 47.4776H28.2235V38.8835H19.6499V47.4776Z" fill="#EA1D2C"/>
<path d="M46.7777 50.3359H35.353C34.5655 50.3359 33.9272 49.6962 33.9272 48.9068V37.4543C33.9272 36.6649 34.5655 36.0251 35.353 36.0251H46.7777C47.5652 36.0251 48.2034 36.6649 48.2034 37.4543V43.1805C48.2034 43.9699 47.5652 44.6097 46.7777 44.6097C45.9901 44.6097 45.3519 43.9699 45.3519 43.1805V38.8835H36.7788V47.4776H46.7777C47.5652 47.4776 48.2034 48.1174 48.2034 48.9068C48.2034 49.6962 47.5652 50.3359 46.7777 50.3359Z" fill="#EA1D2C"/>
</g>
<defs>
<clipPath id="clip0">
<rect width="67" height="73" fill="white"/>
</clipPath>
</defs>
</svg>
