<svg width="100" height="82" viewBox="0 0 100 82" fill="none" xmlns="http://www.w3.org/2000/svg">
<path d="M92.988 32.2207L92.9385 32.1234C88.588 13.4871 70.5865 0 50 0C25.7395 0 6 18.3701 6 40.9476C6 51.292 10.169 61.1809 17.7315 68.7869L18.2815 69.3346L67.82 81.3936C69.1785 81.7263 70.5865 81.8952 72 81.8952C79.491 81.8952 85.915 77.3193 87.895 70.6756L90.535 59.978C92.625 58.5807 94 56.3132 94 53.7438V35.8292C94 34.5188 93.615 33.3007 92.988 32.2207ZM82.725 68.8022C81.3995 74.279 74.9975 77.8517 69.206 76.4441L21.235 64.7689C14.954 58.1866 11.5 49.7565 11.5 40.9476C11.5 21.1904 28.7755 5.11845 50 5.11845C66.082 5.11845 80.3105 14.5466 85.893 28.1668C85.8435 28.1668 85.7995 28.1515 85.75 28.1515H44.5C38.4335 28.1515 33.5 32.7427 33.5 38.3884C33.5 41.6796 35.216 44.7865 38.087 46.7059L52.2055 56.1392C57.381 59.5942 63.4805 61.4214 69.844 61.4214H84.5345L82.725 68.8022ZM88.5 53.7438C88.5 55.1564 87.2625 56.303 85.75 56.303H69.844C64.6355 56.303 59.647 54.8084 55.4175 51.983L41.299 42.5497C39.858 41.5874 39 40.0314 39 38.3884C39 35.5681 41.464 33.2699 44.5 33.2699H85.75C87.2625 33.2699 88.5 34.4165 88.5 35.8292V53.7438Z" fill="#EA1D2C"/>
<path d="M45.9025 34.5825H45.8475C44.324 34.5825 43.125 35.729 43.125 37.1417C43.125 38.5544 44.3845 39.7009 45.9025 39.7009C47.4205 39.7009 48.6525 38.5544 48.6525 37.1417C48.6525 35.729 47.4205 34.5825 45.9025 34.5825Z" fill="#EA1D2C"/>
</svg>
