<svg xmlns="http://www.w3.org/2000/svg" viewBox="0 402 960 158"><g fill="#E3051F"><path d="M301.1 525.3c0 6.2-1.6 11.6-4.8 16.2-3.2 4.6-7.6 8.1-13.4 10.5-5.7 2.4-12.3 3.6-19.7 3.6-2.1 0-4.6-.2-7.6-.4-2.9-.3-6.9-1-12-2.2-4.9-1.2-10.1-2.9-15.5-5.3v-24.5c5 3.1 10 5.7 14.8 7.8 4.9 2.1 10.1 3.1 15.7 3.1 5.1 0 8.5-.9 10-2.5 1.5-1.7 2.3-3.3 2.3-4.8 0-2.7-1.3-4.9-3.9-6.8-2.6-1.8-6.3-3.7-11.3-5.7-5.5-2.3-10.2-4.9-14.4-7.5-4.2-2.7-7.5-6.1-10.1-10.2s-3.9-8.9-3.9-14.5c0-5.4 1.3-10.2 4-14.6 2.6-4.3 6.7-7.8 12.1-10.4 5.5-2.6 12.1-3.9 19.9-3.9 5.6 0 10.7.5 15.4 1.6 4.7 1.1 8.6 2.3 11.7 3.6 3 1.4 5.2 2.4 6.3 3.2V485c-4.1-2.9-8.7-5.6-13.6-7.8-5-2.3-10.4-3.5-16-3.5-3.7 0-6.4.7-8.2 2.2-1.6 1.5-2.5 3.2-2.5 5.3 0 2 .9 3.6 2.5 5.1s4.7 3.2 9 5.3c7.6 3.6 13.8 6.9 18.4 9.7 4.6 2.9 8.2 6.2 10.8 10 2.7 3.7 4 8.4 4 14M423.5 505.2c0 9.1-2.1 17.5-6.3 25.2-4.2 7.7-10.5 13.8-18.8 18.3s-18.5 6.8-30.5 6.8c-12.1 0-22.4-2.3-30.8-7.1-8.4-4.7-14.7-10.9-18.7-18.6-4.1-7.7-6.1-15.9-6.1-24.6 0-8.8 2-17.1 6.1-24.7s10.3-13.8 18.7-18.6c8.4-4.7 18.6-7 30.8-7 9.1 0 17.2 1.3 24.2 4 7.1 2.7 12.9 6.3 17.5 10.9s8.1 10 10.4 16c2.3 6.3 3.5 12.8 3.5 19.4m-30.1 0c0-3.6-.5-7-1.6-10.1-1-3-2.7-5.6-4.9-7.9-2.2-2.3-4.9-4-8.1-5.2-3.1-1.3-6.8-1.9-10.9-1.9-7.9 0-14.1 2.3-18.6 6.9s-6.8 10.7-6.8 18.2 2.3 13.5 6.9 18.2c4.5 4.7 10.8 6.9 18.6 6.9 5.5 0 10.1-1 13.9-3.2 3.8-2.2 6.7-5.1 8.7-8.9 1.8-3.7 2.8-8 2.8-13M537.3 507.1c0 10.1-1.8 18.1-5.5 24.2-3.7 6.1-8 11-12.9 14.7-7 5.6-16.8 8.2-29.5 8.2h-52.8v-98h40.8c6.2 0 11.4.3 15.7 1 4.3.6 8.3 1.6 11.8 2.7s6.4 2.4 8.9 3.9c2.4 1.5 4.7 2.9 6.6 4.6 3.4 2.7 6.2 6 8.8 9.7 2.5 3.7 4.5 8.1 6 12.9 1.3 5 2.1 10.3 2.1 16.1m-30.1-1.3c0-8-1.6-14.1-4.6-18.6-3-4.4-6.7-7.5-10.9-8.9-4.2-1.5-8.6-2.3-13-2.3h-12.6v58h12.6c7.7 0 14.4-1.8 20.1-5.6 5.7-3.6 8.4-11.1 8.4-22.6M549.4 456.3H579v98h-29.6zM706.9 554.3h-29.4v-56.8l-26.7 32.9h-2.3l-26.8-32.9v56.8H593v-98h26.8l30.2 36.8 30.2-36.8h26.7zM832.5 554.3h-30.3l-8-19.9h-42.6l-8.2 19.9h-30.3l43.4-98h32.7l43.3 98zm-45-36.8l-14.3-35.8-14.5 35.8h28.8zM922.8 547c-4.1 2.1-8.2 3.8-12.5 5.1-4.3 1.3-8.5 2.2-12.8 2.7s-8.8.8-13.4.8c-8.6 0-16.2-1.2-23-3.6-6.8-2.3-12.7-5.8-17.6-10.4-4.9-4.6-8.7-10-11.2-16.1-2.5-6.2-3.7-12.9-3.7-20.3 0-8.4 1.5-15.9 4.3-22.2 2.9-6.3 7-11.6 12.3-15.8s11.3-7.3 18-9.3c6.8-2 13.8-3 21.2-3 11.1 0 23.8 2.5 37.8 7.5v26c-4.9-3-9.6-5.6-14.4-7.5-4.8-2-10.3-3-16.7-3-5.7 0-11 1.1-16 3.4s-8.9 5.5-12 9.7c-3 4.2-4.5 9.1-4.5 14.7 0 4.9 1.3 9.5 4 13.6 2.6 4.2 6.3 7.4 11 9.8s10 3.6 15.9 3.6c4.8 0 9.3-.6 13.5-1.7 4.2-1.1 7.8-2.4 10.7-3.9 2.9-1.4 5.9-3 8.9-5l.2 24.9zM941 535.2h3.8c1.7 0 3 .3 3.9.9 1 .5 1.4 1.4 1.4 2.5 0 .9-.3 1.6-.8 2.3-.5.6-1.2 1-2.1 1l2.8 5.7h-2.2l-2.5-5.5h-2.4v5.5H941v-12.4zm1.9 1.5v4.2h2c1.1 0 1.9-.2 2.4-.4.5-.3.7-.9.7-1.5 0-.8-.3-1.3-.8-1.6-.5-.3-1.4-.5-2.5-.5l-1.8-.2z"/><path d="M945 553.6c-1.6 0-3-.3-4.5-1-1.5-.6-2.8-1.6-3.9-2.6-1.1-1.1-2-2.4-2.5-3.8-.6-1.5-.9-3-.9-4.5 0-1.3.2-2.6.6-3.9.4-1.3 1-2.4 1.9-3.5 1.1-1.5 2.5-2.6 4.2-3.4 2.9-1.5 6.7-1.6 9.9-.3 1.5.6 2.8 1.5 3.8 2.7 1.1 1.1 2 2.4 2.6 3.8.6 1.5.9 2.9.9 4.5s-.3 3.2-1 4.6c-.6 1.5-1.6 2.8-2.6 3.8-1.1 1.1-2.4 2-3.9 2.6-1.5.7-3 1-4.6 1m0-22c-1.6 0-3.1.3-4.4 1-1.4.6-2.5 1.6-3.5 2.9-.7.9-1.2 1.9-1.6 2.9-.3 1-.5 2.1-.5 3.3 0 1.3.3 2.6.7 3.9.5 1.2 1.2 2.3 2.2 3.2 1 1 2.1 1.7 3.3 2.3 2.4 1 5.1 1 7.6 0 1.2-.5 2.3-1.2 3.3-2.2s1.7-2 2.3-3.2c.5-1.2.8-2.6.8-3.9 0-1.3-.3-2.6-.8-3.8-.5-1.2-1.2-2.3-2.2-3.3s-2.1-1.7-3.3-2.3c-1.2-.5-2.5-.8-3.9-.8"/></g><path fill="#1D1D1B" d="M153.1 421.4h-36.8v-14h-28v14H51.8L4.3 475.7v78.6h195.9v-78.6z"/><path fill="#E3051F" d="M18.3 489.6h76.9v50.7H18.3z"/><path fill="#FFF" d="M109.3 489.6h76.9v50.7h-76.9z"/><path fill="#006BB3" d="M182.8 475.6l-35.1-40.3H74.2l35.2 40.3z"/><path fill="#FFDE00" d="M91.8 475.6l-34.4-40.4L22 475.6z"/></svg>