<svg width="64" height="64" viewBox="0 0 64 64" fill="none" xmlns="http://www.w3.org/2000/svg">
<path d="M61.5052 0.107259C61.492 0.111884 61.4786 0.115634 61.4655 0.120634L1.4666 22.6202C0.0384794 23.1558 -0.184895 25.0893 1.08498 25.936L14.2398 34.7059C14.286 34.8988 19.0334 54.7428 19.0648 54.8599C19.4339 56.2445 21.1758 56.7256 22.2004 55.701L31.6133 46.2882L46.0841 55.9354C47.1436 56.6416 48.5794 56.1074 48.927 54.8904C49.05 54.4598 63.9192 2.422 63.9432 2.325C64.3026 0.865007 62.8936 -0.378865 61.5052 0.107259ZM6.21072 24.8461L48.3603 9.03999L15.8933 31.3012L6.21072 24.8461ZM23.3759 38.5431C23.3704 38.5513 23.3663 38.5599 23.3609 38.5682C23.3427 38.5971 23.3252 38.6263 23.3086 38.6561C23.2037 38.8397 23.1313 39.0341 23.0937 39.2326L21.0006 46.845L18.0199 34.3898L47.0603 14.478C22.0919 39.7917 23.5319 38.3064 23.3796 38.5382C23.3786 38.5398 23.3771 38.5413 23.3759 38.5431ZM24.5622 48.0359L26.0607 42.5863L28.4314 44.1668L24.5622 48.0359ZM46.027 51.3902C45.8513 51.273 28.2189 39.5182 27.8631 39.2809L58.3047 8.41812L46.027 51.3902Z" fill="#EA1D2C"/>
<path d="M12.5757 51.4244C11.8435 50.6922 10.6563 50.6922 9.92404 51.4244L0.549186 60.7992C-0.183062 61.5314 -0.183062 62.7185 0.549186 63.4508C1.28131 64.183 2.46868 64.183 3.20081 63.4508L12.5757 54.0759C13.3079 53.3437 13.3079 52.1565 12.5757 51.4244Z" fill="#EA1D2C"/>
<path d="M12.5757 40.1745C11.8435 39.4423 10.6563 39.4423 9.92404 40.1745L0.549186 49.5494C-0.183062 50.2816 -0.183062 51.4688 0.549186 52.201C1.28131 52.9333 2.46868 52.9333 3.20081 52.201L12.5757 42.8261C13.3079 42.0939 13.3079 40.9068 12.5757 40.1745Z" fill="#EA1D2C"/>
</svg>
