<svg width="67" height="80" viewBox="0 0 67 80" fill="none" xmlns="http://www.w3.org/2000/svg">
<path d="M50.0202 57.8633C48.6247 56.9172 46.903 56.442 45.2383 55.9826C44.875 55.8823 44.513 55.7825 44.1583 55.6783C42.1217 55.0795 40.8158 53.8979 40.6647 52.517C40.5425 51.4001 41.2149 50.3228 42.4625 49.6353C42.7263 49.4901 43.0199 49.3817 43.3342 49.305V51.784C43.3342 52.7043 44.0803 53.4508 45.001 53.4508C45.9213 53.4508 46.6677 52.7043 46.6677 51.784V49.4268C47.6406 49.6667 48.5885 50.0534 49.3647 50.5228C50.1522 50.9997 51.1769 50.7476 51.6535 49.96C52.13 49.1725 51.8781 48.1478 51.0906 47.6711C49.8574 46.9245 48.2956 46.3112 46.6678 46.0158V44.8176C46.6678 43.8973 45.9214 43.1509 45.0011 43.1509C44.0806 43.1509 43.3344 43.8973 43.3344 44.8176V45.9148C42.46 46.0381 41.6189 46.2944 40.8542 46.7156C38.4242 48.0547 37.082 50.4162 37.3513 52.8794C37.6535 55.6436 39.8467 57.8853 43.2185 58.8762C43.2564 58.8873 43.296 58.8983 43.3342 58.9093V66.7568C41.955 66.527 40.8138 65.9428 40.4481 65.2389C40.0242 64.4218 39.0185 64.1033 38.2014 64.527C37.3844 64.9509 37.0656 65.9568 37.4894 66.774C38.503 68.7278 40.8545 69.8284 43.3341 70.1094V71.8492C43.3341 72.7695 44.0802 73.5159 45.0008 73.5159C45.9211 73.5159 46.6675 72.7695 46.6675 71.8492V69.989C47.0131 69.922 47.3505 69.8387 47.6741 69.7367C50.2883 68.9128 52.2328 66.6383 52.6274 63.9422C52.9867 61.4867 52.0121 59.2142 50.0202 57.8633ZM49.3291 63.4597C49.1185 64.8993 48.0756 66.1153 46.6722 66.5575C46.6708 66.5579 46.6692 66.5583 46.6677 66.559V59.9025C47.2281 60.1095 47.7377 60.3433 48.1496 60.6223C49.4589 61.5104 49.4108 62.9023 49.3291 63.4597Z" fill="#EA1D2C"/>
<path d="M45.0009 36.6669C44.4402 36.6669 43.8838 36.6884 43.3336 36.7303V7.91672C43.3336 6.17672 42.1142 3.72156 36.3063 1.90641C32.3722 0.677188 27.1731 0 21.6669 0C16.1606 0 10.9617 0.677188 7.0275 1.90641C1.21922 3.72156 0 6.17672 0 7.91672V58.3337C0 60.0736 1.21922 62.5287 7.0275 64.3437C10.9617 65.5731 16.1608 66.2503 21.6669 66.2503C22.7164 66.2503 23.7659 66.2239 24.802 66.1739C27.9508 74.2567 35.8172 80 45.0008 80C56.9478 80 66.6673 70.2806 66.6673 58.3337C66.6675 46.3866 56.948 36.6669 45.0009 36.6669ZM8.02172 5.08797C11.6428 3.95641 16.4886 3.33328 21.6669 3.33328C26.8448 3.33328 31.6909 3.95641 35.312 5.08797C39.1389 6.28391 40.0003 7.56297 40.0003 7.91672C40.0003 8.27062 39.1389 9.54953 35.312 10.7456C31.6909 11.877 26.8452 12.5002 21.6669 12.5002C16.4886 12.5002 11.6427 11.877 8.02172 10.7455C4.19453 9.54953 3.33328 8.27062 3.33328 7.91672C3.33328 7.56312 4.19453 6.28406 8.02172 5.08797ZM3.33328 12.3837C4.28813 12.9261 5.49719 13.4489 7.0275 13.927C10.9617 15.1564 16.1608 15.8334 21.6669 15.8334C27.173 15.8334 32.3722 15.1563 36.3063 13.9272C37.8366 13.4491 39.0455 12.9263 40.0003 12.3839V16.32C40.0003 16.6736 39.1389 17.9527 35.312 19.1488C31.6908 20.2802 26.8452 20.9033 21.6669 20.9033C19.2638 20.9033 16.9175 20.768 14.6933 20.5014C13.7798 20.3909 12.9495 21.0439 12.8402 21.9578C12.7306 22.8717 13.3827 23.7016 14.2966 23.8109C16.6519 24.0933 19.1316 24.2366 21.667 24.2366C27.1733 24.2366 32.3723 23.5594 36.3063 22.3302C37.8366 21.852 39.0455 21.3292 40.0003 20.787V33.1253C40.0003 33.4792 39.1389 34.7581 35.312 35.9542C31.6909 37.0858 26.8452 37.7087 21.6669 37.7087C16.4886 37.7087 11.6425 37.0858 8.02172 35.9542C4.19453 34.7583 3.33313 33.4792 3.33313 33.1253V29.1898C4.28797 29.732 5.49703 30.255 7.02734 30.7331C10.9616 31.9625 16.1606 32.6395 21.6667 32.6395C24.947 32.6395 28.0884 32.4041 31.0038 31.9395C31.913 31.7948 32.5325 30.9405 32.3877 30.0316C32.2428 29.1223 31.3863 28.5033 30.4795 28.6478C27.7756 29.0784 24.7283 29.3061 21.6667 29.3061C16.4888 29.3061 11.6425 28.683 8.02156 27.5514C4.19438 26.3555 3.33297 25.0766 3.33297 24.7228V12.3837H3.33328ZM21.6669 62.917C16.4889 62.917 11.6427 62.2939 8.02172 61.1623C4.19453 59.9664 3.33313 58.6875 3.33313 58.3337V54.3978C4.28797 54.94 5.49703 55.463 7.02734 55.9411C10.9614 57.1705 16.1606 57.8477 21.6667 57.8477C22.2244 57.8477 22.783 57.8398 23.3395 57.8256C23.3356 57.995 23.3334 58.1641 23.3334 58.3337C23.3334 58.5234 23.3361 58.7122 23.3409 58.9008C23.3425 58.9594 23.3455 59.0183 23.3477 59.0772C23.352 59.2069 23.3563 59.3367 23.363 59.4656C23.3666 59.5367 23.3722 59.6078 23.3764 59.6786C23.3836 59.7947 23.3905 59.9112 23.3992 60.0269C23.4053 60.1053 23.4133 60.1836 23.4202 60.2617C23.4298 60.3695 23.4388 60.4775 23.45 60.5848C23.4589 60.6695 23.4694 60.7541 23.4792 60.8383C23.4908 60.9381 23.5019 61.0381 23.5147 61.1377C23.5266 61.2298 23.5402 61.3219 23.5533 61.4136C23.5661 61.5037 23.5786 61.5942 23.5927 61.6841C23.6084 61.7847 23.6256 61.885 23.6428 61.9855C23.6563 62.0652 23.6697 62.145 23.6839 62.2245C23.7039 62.3344 23.7256 62.4439 23.7472 62.5536C23.7605 62.6212 23.7738 62.6891 23.7877 62.7564C23.7959 62.7972 23.8034 62.8386 23.8123 62.8797C23.1009 62.9045 22.3839 62.917 21.6669 62.917ZM25.2519 49.422C25.2513 49.4237 25.2503 49.425 25.2497 49.4267C25.1911 49.5569 25.1341 49.6875 25.0778 49.8189C25.0619 49.8563 25.0453 49.8933 25.0297 49.9308C25.0038 49.9923 24.9791 50.0542 24.9538 50.1161C24.3822 51.5052 23.95 52.9656 23.6769 54.4808C23.0092 54.5023 22.3373 54.5144 21.6667 54.5144C16.4884 54.5144 11.6425 53.8912 8.02156 52.7597C4.19438 51.5637 3.33297 50.2847 3.33297 49.9309V37.5922H3.33313C4.28797 38.1344 5.49703 38.6573 7.02734 39.1355C10.9614 40.3647 16.1605 41.0419 21.6667 41.0419C26.0545 41.0419 30.245 40.6108 33.7578 39.8141C31.8014 41.0031 30.0281 42.5027 28.5189 44.2691C28.083 44.7795 27.6733 45.3086 27.2889 45.8537C25.4764 46.0244 23.585 46.1114 21.6667 46.1114C19.2636 46.1114 16.9173 45.9761 14.6931 45.7095C13.7797 45.5998 12.9494 46.2519 12.84 47.1659C12.7305 48.0798 13.3825 48.9097 14.2964 49.0191C16.6517 49.3014 19.1314 49.4447 21.6669 49.4447C22.8886 49.4447 24.0983 49.407 25.2892 49.3409C25.2769 49.3681 25.2642 49.395 25.2519 49.422ZM45.0009 76.6667C36.7898 76.6667 29.8223 71.2411 27.4952 63.787C27.4669 63.6964 27.4405 63.6052 27.4136 63.5142C27.3686 63.3617 27.3256 63.2084 27.2844 63.0544C27.2569 62.9509 27.2302 62.8472 27.2044 62.7434C27.1833 62.6578 27.1614 62.5725 27.1414 62.4861C27.1009 62.3111 27.0631 62.1355 27.0275 61.9591C27.013 61.887 26.9995 61.8147 26.9858 61.7423C26.9569 61.5891 26.9298 61.4353 26.905 61.2814C26.8972 61.2333 26.8884 61.1855 26.8811 61.1372C26.8508 60.9411 26.8245 60.7442 26.8008 60.547C26.7939 60.4897 26.7875 60.4323 26.7811 60.375C26.76 60.1837 26.7408 59.9923 26.7256 59.8005C26.7242 59.7836 26.7227 59.767 26.7213 59.7502C26.7053 59.5425 26.6939 59.3342 26.685 59.1255C26.6827 59.0731 26.6808 59.0208 26.6791 58.9684C26.6717 58.7572 26.6669 58.5458 26.6669 58.3337C26.6669 58.0795 26.6738 57.8269 26.6839 57.5752C26.6856 57.5341 26.6867 57.4925 26.6886 57.4514C26.6992 57.2244 26.7152 56.9984 26.7339 56.7736C26.7398 56.7028 26.7459 56.632 26.7528 56.5616C26.7719 56.3619 26.7944 56.1631 26.8195 55.9655C26.8334 55.8584 26.8489 55.7522 26.8645 55.6458C26.8788 55.5481 26.8947 55.4509 26.9103 55.3538C26.9492 55.1172 26.9911 54.8819 27.0392 54.6486C27.0397 54.6458 27.0405 54.643 27.0411 54.6402C28.4152 47.9491 33.4463 42.5766 39.9453 40.7095C39.972 40.702 39.9983 40.6942 40.0248 40.6867C40.1752 40.6444 40.3267 40.6039 40.4788 40.565C40.6522 40.5214 40.8267 40.4794 41.0025 40.4405C41.0695 40.4255 41.137 40.4106 41.2047 40.3963C41.4345 40.3481 41.6661 40.3033 41.8994 40.2636C42.9078 40.0911 43.9441 39.9998 45.0013 39.9998C55.11 39.9998 63.3344 48.2244 63.3344 58.3334C63.3341 68.4425 55.1097 76.6667 45.0009 76.6667Z" fill="#EA1D2C"/>
<path d="M8.38782 22.7194C8.64611 22.7875 8.91048 22.8537 9.1797 22.9176C9.30939 22.9486 9.43923 22.9631 9.56689 22.9631C10.3209 22.9631 11.0047 22.4476 11.1869 21.6817C11.3999 20.7864 10.8467 19.8876 9.95126 19.6747C9.70876 19.617 9.47079 19.5575 9.23814 19.4962C8.34736 19.2612 7.43595 19.7926 7.20142 20.6826C6.96642 21.5728 7.49767 22.4847 8.38782 22.7194Z" fill="#EA1D2C"/>
<path d="M35.4665 30.9136C35.624 30.9136 35.7844 30.8909 35.943 30.8437C36.2708 30.7461 36.6012 30.6409 36.9249 30.5312C37.7966 30.2358 38.2638 29.2894 37.9682 28.4175C37.6727 27.5458 36.7263 27.0787 35.8544 27.3742C35.5699 27.4708 35.2796 27.5633 34.9911 27.6489C34.109 27.9117 33.6069 28.8398 33.8696 29.722C34.0855 30.4459 34.7482 30.9136 35.4665 30.9136Z" fill="#EA1D2C"/>
<path d="M9.95018 44.8828C9.70737 44.8252 9.46877 44.7656 9.2358 44.7046C8.34659 44.4716 7.43424 45.0031 7.20065 45.8938C6.96721 46.7839 7.49955 47.6952 8.38987 47.9288C8.64799 47.9964 8.9119 48.0622 9.18065 48.1261C9.31002 48.1567 9.43955 48.1714 9.56674 48.1714C10.3213 48.1714 11.005 47.6555 11.1869 46.8892C11.3996 45.9936 10.8458 45.0952 9.95018 44.8828Z" fill="#EA1D2C"/>
</svg>
