<svg width="74" height="68" viewBox="0 0 74 68" fill="none" xmlns="http://www.w3.org/2000/svg">
<path d="M56.6171 15.8904C56.6171 18.1322 54.9851 19.4956 53.7933 20.4962C53.342 20.8751 52.5019 21.5666 52.5041 21.8249C52.5123 22.8381 51.6977 23.6472 50.6843 23.6472C50.6792 23.6472 50.6741 23.6472 50.669 23.6472C49.6628 23.6472 48.8429 22.8629 48.8347 21.8549C48.8186 19.8679 50.2686 18.678 51.4339 17.6997C52.3482 16.9319 52.9477 16.3917 52.9477 15.8974C52.9477 14.8966 52.1335 14.0824 51.1328 14.0824C50.1316 14.0824 49.3172 14.8966 49.3172 15.8974C49.3172 16.9107 48.4959 17.7321 47.4825 17.7321C46.4691 17.7321 45.6478 16.9107 45.6478 15.8974C45.6478 12.8734 48.1082 10.413 51.1324 10.413C54.1568 10.4128 56.6171 12.8662 56.6171 15.8904ZM50.7198 25.3408C49.7064 25.3408 48.9256 26.1622 48.9256 27.1755V27.1896C48.9256 28.203 49.7066 29.0174 50.7198 29.0174C51.7329 29.0174 52.5545 28.1889 52.5545 27.1755C52.5545 26.1622 51.7331 25.3408 50.7198 25.3408ZM13.7383 38.1212C12.7249 38.1212 11.9036 38.9426 11.9036 39.9559C11.9036 40.9693 12.7249 41.7906 13.7383 41.7906H13.8912C14.9046 41.7906 15.7259 40.9693 15.7259 39.9559C15.7259 38.9426 14.9046 38.1212 13.8912 38.1212H13.7383ZM20.1147 38.1212C19.1014 38.1212 18.28 38.9426 18.28 39.9559C18.28 40.9693 19.1014 41.7906 20.1147 41.7906H20.2674C21.2808 41.7906 22.1021 40.9693 22.1021 39.9559C22.1021 38.9426 21.2808 38.1212 20.2674 38.1212H20.1147ZM74 8.81701V29.4679C74 34.3574 70.0794 38.3251 65.1899 38.3251H41.3964C40.9312 38.3251 40.5481 38.3224 40.2277 38.3157C39.8919 38.3088 39.514 38.3061 39.3666 38.3224C39.2131 38.4244 38.8368 38.7691 38.4741 39.1032C38.3304 39.2355 38.1677 39.3811 37.9922 39.5413L31.2604 45.677C30.7235 46.1668 29.929 46.2936 29.264 46.0005C28.5991 45.7071 28.1322 45.0487 28.1322 44.3219V24.8705H8.91262C6.04598 24.8705 3.66942 27.2196 3.66942 30.0858V50.7367C3.66942 53.6031 6.04619 55.8568 8.91262 55.8568H35.4902C35.9479 55.8568 36.376 56.0669 36.714 56.3756L42.1983 61.432V43.9943C42.1983 42.981 43.0197 42.1596 44.0331 42.1596C45.0464 42.1596 45.8678 42.981 45.8678 43.9943V65.5905C45.8678 66.3173 45.4519 66.9659 44.7867 67.2593C44.5488 67.3643 44.3099 67.4056 44.0598 67.4056C43.6105 67.4056 43.1673 67.2212 42.8226 66.9064L34.779 59.526H8.91262C4.02291 59.526 0 55.6262 0 50.7365V30.0858C0 25.1963 4.02291 21.2011 8.91262 21.2011H28.1322V8.81701C28.1322 3.9273 32.1859 0 37.0756 0H65.1901C70.0794 0 74 3.9273 74 8.81701ZM70.3306 8.81701C70.3306 5.95058 68.0561 3.66942 65.1899 3.66942H37.0756C34.2092 3.66942 31.8017 5.95058 31.8017 8.81701V23.0529V40.1635L35.4904 36.8298C35.6613 36.6738 35.8527 36.5311 35.9923 36.4023C37.6768 34.8501 38.1078 34.602 40.3049 34.6473C40.6046 34.6536 40.9615 34.6559 41.3964 34.6559H65.1899C68.0561 34.6559 70.3306 32.3343 70.3306 29.4681V8.81701Z" fill="#EA1D2C"/>
</svg>
