<svg width="74" height="72" viewBox="0 0 74 72" fill="none" xmlns="http://www.w3.org/2000/svg">
<path d="M69.5224 29.6056H54.8628C54.119 29.6056 53.5178 30.2069 53.5178 30.9507C53.5178 31.6945 54.119 32.2957 54.8628 32.2957H67.1053L71.0046 68.6118H3.05055L7.62772 32.2957H19.8918C20.6356 32.2957 21.2368 31.6945 21.2368 30.9507C21.2368 30.2069 20.6356 29.6056 19.8918 29.6056H5.25507L0 71.3018H74L69.5224 29.6056Z" fill="#EA1D2C"/>
<path d="M35.8506 51.0657C35.6529 51.1828 35.4417 51.2863 35.252 51.4087C34.9561 51.5997 34.6669 51.8001 34.3831 52.0073C33.7846 52.4471 33.6555 53.2891 34.094 53.8876C34.3576 54.2468 34.7665 54.4364 35.1807 54.4364C35.4565 54.4364 35.7349 54.3517 35.9757 54.1768C36.2151 54.0006 36.4585 53.8311 36.7127 53.667C37.1445 53.3873 37.6032 53.125 38.0766 52.8856C38.7061 52.5668 38.9617 51.8217 38.698 51.1787C38.7088 51.168 38.7222 51.1599 38.7317 51.1491C41.1648 48.572 49.3642 38.9147 52.7591 22.8253C53.4477 19.5622 53.6024 16.431 53.2191 13.519C52.0623 4.67536 46.5678 0 37.3301 0C28.0951 0 22.6006 4.67536 21.4412 13.519C21.0592 16.4323 21.2139 19.5636 21.9025 22.8253C25.2638 38.7586 33.334 48.3784 35.8506 51.0657ZM24.1084 13.87C25.0943 6.34858 29.4199 2.69142 37.3315 2.69142C45.2443 2.69142 49.5686 6.34858 50.5532 13.87C50.8962 16.4794 50.7523 19.308 50.1282 22.2725C47.0763 36.7357 39.7996 45.9129 37.3315 48.6971C34.8606 45.9102 27.5853 36.729 24.5348 22.2725C23.9093 19.308 23.7668 16.4808 24.1084 13.87Z" fill="#EA1D2C"/>
<path d="M37.3314 25.4522C42.7801 25.4522 47.212 21.0203 47.212 15.5715C47.212 10.1228 42.7801 5.69089 37.3314 5.69089C31.8826 5.69089 27.4507 10.1228 27.4507 15.5715C27.4507 21.0203 31.8826 25.4522 37.3314 25.4522ZM37.3314 8.38231C41.2952 8.38231 44.5219 11.6077 44.5219 15.5729C44.5219 19.5381 41.2965 22.7635 37.3314 22.7635C33.3662 22.7635 30.1408 19.5381 30.1408 15.5729C30.1408 11.6077 33.3675 8.38231 37.3314 8.38231Z" fill="#EA1D2C"/>
<path d="M42.2719 48.6474C41.5456 48.8007 41.0829 49.5162 41.2376 50.2439C41.3721 50.8761 41.9303 51.3078 42.5517 51.3078C42.6445 51.3078 42.74 51.2984 42.8342 51.2783C43.6224 51.1115 44.4764 50.9702 45.3709 50.8573C46.108 50.7671 46.6325 50.0946 46.5397 49.3575C46.4483 48.6191 45.7825 48.0865 45.04 48.1887C44.0676 48.3084 43.1354 48.4631 42.2719 48.6474Z" fill="#EA1D2C"/>
<path d="M49.2271 49.1934C49.2567 49.9157 49.8539 50.4806 50.5695 50.4806C50.5896 50.4806 50.6085 50.4806 50.6287 50.4793L53.3201 50.3676C54.0612 50.334 54.6369 49.7045 54.6019 48.9634C54.5683 48.2196 53.8769 47.6399 53.1977 47.6802L50.513 47.7919C49.7705 47.8228 49.1948 48.4496 49.2271 49.1934Z" fill="#EA1D2C"/>
<path d="M30.1733 55.382C29.4819 55.9039 28.7677 56.4056 28.0481 56.871C27.4254 57.2758 27.2478 58.1084 27.6527 58.7325C27.9096 59.1293 28.3427 59.3445 28.7825 59.3445C29.034 59.3445 29.2869 59.2745 29.5142 59.1279C30.2849 58.6276 31.0529 58.0896 31.7941 57.53C32.3859 57.0821 32.5042 56.2388 32.0577 55.6456C31.6098 55.0578 30.7691 54.9341 30.1733 55.382Z" fill="#EA1D2C"/>
<path d="M60.15 46.5128C59.6954 46.8316 59.1049 47.0629 58.3396 47.2203C57.6119 47.3696 57.1438 48.0825 57.2945 48.8101C57.4263 49.4463 57.9858 49.8835 58.6113 49.8835C58.7014 49.8835 58.7928 49.8741 58.8843 49.8552C60.0168 49.6212 60.9368 49.2473 61.7035 48.7079L61.8837 48.5761C62.4755 48.1268 62.5926 47.2835 62.1447 46.6917C61.6954 46.0999 60.8534 45.9842 60.2603 46.4308L60.15 46.5128Z" fill="#EA1D2C"/>
<path d="M11.917 57.0296C12.112 56.3127 11.687 55.5743 10.9701 55.3806C10.2585 55.1802 9.51472 55.6079 9.32104 56.3275C9.15156 56.9516 9.05069 57.5892 9.0184 58.2173C9.01168 58.372 9.00764 58.528 9.00764 58.6921C9.00899 58.9557 9.02109 59.2194 9.04665 59.4816C9.11794 60.1743 9.70168 60.6895 10.3836 60.6895C10.428 60.6895 10.4737 60.6868 10.5222 60.6828C11.2606 60.6061 11.7986 59.947 11.7246 59.2073C11.7058 59.0311 11.6991 58.8522 11.6977 58.6827C11.6977 58.5711 11.7018 58.4594 11.7071 58.3491C11.7287 57.9133 11.7986 57.4681 11.917 57.0296Z" fill="#EA1D2C"/>
<path d="M60.1207 36.0578C59.0527 35.9152 57.9632 36.0027 56.9114 36.3013C56.1958 36.5017 55.7802 37.2455 55.9833 37.9597C56.1501 38.5529 56.6895 38.9402 57.2759 38.9402C57.3983 38.9402 57.5207 38.9241 57.6418 38.8891C58.3412 38.6928 59.0608 38.6309 59.7602 38.725C60.5161 38.8192 61.1752 38.3067 61.2734 37.5723C61.3729 36.8339 60.8564 36.1574 60.1207 36.0578Z" fill="#EA1D2C"/>
<path d="M62.7971 42.7211C62.5778 43.4299 62.9759 44.1845 63.6848 44.4024C63.8179 44.4441 63.9498 44.4629 64.0816 44.4629C64.6572 44.4629 65.1885 44.093 65.3661 43.5147C65.4992 43.0869 65.5813 42.6525 65.6122 42.2194C65.6189 42.1077 65.623 41.9948 65.623 41.8831C65.623 41.2536 65.5073 40.6228 65.28 40.0108C65.0218 39.3128 64.243 38.9604 63.5516 39.2173C62.8535 39.4755 62.4998 40.2502 62.7581 40.9456C62.8737 41.2577 62.9329 41.5738 62.9329 41.8818L62.9289 42.0391C62.9127 42.2624 62.8697 42.4857 62.7971 42.7211Z" fill="#EA1D2C"/>
<path d="M23.5128 59.3997C22.7246 59.7696 21.9216 60.1125 21.1267 60.4206C20.434 60.6869 20.0897 61.4657 20.3574 62.1597C20.5631 62.6923 21.0716 63.0205 21.6123 63.0205C21.7737 63.0205 21.9378 62.9923 22.0965 62.9304C22.9506 62.6009 23.8114 62.2323 24.6561 61.8369C25.3286 61.5221 25.6178 60.7205 25.3017 60.048C24.9883 59.3741 24.1894 59.0822 23.5128 59.3997Z" fill="#EA1D2C"/>
<path d="M13.7207 53.8002C13.9372 53.8002 14.1578 53.7477 14.3636 53.6361C14.751 53.4249 15.1639 53.2931 15.5889 53.2473C15.7705 53.2258 15.9561 53.2258 16.135 53.25C16.8923 53.3482 17.5473 52.829 17.6442 52.0933C17.741 51.3562 17.2232 50.681 16.4874 50.5842C16.0866 50.5317 15.6791 50.529 15.289 50.5734C14.5169 50.6581 13.7718 50.8949 13.0751 51.2742C12.4227 51.6306 12.1819 52.4457 12.5384 53.098C12.7832 53.5473 13.2445 53.8002 13.7207 53.8002Z" fill="#EA1D2C"/>
<path d="M13.4411 64.3466C13.7316 64.4219 14.0275 64.4784 14.3207 64.5134C14.6651 64.5551 15.0094 64.5766 15.3551 64.5766C15.7761 64.5766 16.1984 64.547 16.6194 64.4932C17.3565 64.4004 17.8797 63.7279 17.7856 62.9908C17.6914 62.2537 17.0229 61.7346 16.2832 61.8247C15.7398 61.8946 15.191 61.9108 14.6476 61.8449C14.47 61.822 14.2925 61.7884 14.1176 61.744C13.3981 61.5516 12.665 61.9874 12.4767 62.707C12.2924 63.4266 12.7228 64.161 13.4411 64.3466Z" fill="#EA1D2C"/>
</svg>
