<svg width="74" height="74" viewBox="0 0 74 74" fill="none" xmlns="http://www.w3.org/2000/svg">
<path d="M23.3021 51.0111C23.0333 50.7423 22.6605 50.5875 22.2804 50.5875C21.9004 50.5875 21.5275 50.7422 21.2588 51.0111C20.99 51.2797 20.8354 51.6526 20.8354 52.0326C20.8354 52.4128 20.99 52.7856 21.2588 53.0543C21.5275 53.3231 21.9004 53.4777 22.2804 53.4777C22.6605 53.4777 23.0333 53.3232 23.3021 53.0543C23.5709 52.7856 23.7255 52.4128 23.7255 52.0326C23.7255 51.6526 23.5709 51.2797 23.3021 51.0111Z" fill="#EA1D2C"/>
<path d="M71.5587 52.6085L61.1115 42.1614C59.5523 40.6022 57.4793 39.7435 55.2742 39.7435C53.069 39.7435 50.9962 40.6022 49.4369 42.1614L45.7938 45.8044C45.7936 45.8046 45.7935 45.8047 45.7933 45.8049C45.7932 45.805 45.793 45.8051 45.7929 45.8053L44.3376 47.2605L26.7072 29.6301L31.8065 24.5311C35.0251 21.3123 35.0251 16.0751 31.8065 12.8563L21.3683 2.41826C18.1496 -0.800064 12.9124 -0.800064 9.69366 2.41826L6.94036 5.17141C-2.31345 14.4254 -2.31345 29.4826 6.94036 38.7366L17.0923 48.8885C17.6566 49.4526 18.5716 49.4526 19.1361 48.8885C19.7004 48.3242 19.7004 47.4092 19.1361 46.8447L8.98413 36.6928C1.50501 29.2138 0.909204 17.4184 7.19599 9.251L18.17 20.2252C18.4522 20.5073 18.822 20.6484 19.1918 20.6484C19.5616 20.6484 19.9316 20.5073 20.2136 20.2252C20.7779 19.6609 20.7781 18.7459 20.2136 18.1814L9.11577 7.08339L11.7373 4.46188C13.8292 2.37028 17.2328 2.36999 19.3246 4.46188L29.7627 14.8999C31.8546 16.9918 31.8546 20.3954 29.7627 22.4873L23.6416 28.6082C23.3707 28.8793 23.2184 29.2468 23.2184 29.63C23.2184 30.0132 23.3707 30.3807 23.6416 30.6518L43.3157 50.3259C43.8802 50.8904 44.7952 50.8902 45.3594 50.3259L46.8151 48.8703L64.7268 66.782C61.101 69.5808 56.6788 71.098 52.0229 71.098C46.4553 71.098 41.221 68.9298 37.284 64.9928L26.9876 54.6964C26.4234 54.1322 25.5082 54.1322 24.9439 54.6964C24.3796 55.2607 24.3796 56.1757 24.9439 56.7402L35.2404 67.0366C39.7231 71.5194 45.6834 73.9881 52.0229 73.9881C58.3626 73.9881 64.3228 71.5194 68.8055 67.0366L71.5587 64.2833C73.1179 62.7242 73.9766 60.6511 73.9766 58.4459C73.9766 56.2409 73.1179 54.1679 71.5587 52.6085ZM69.5151 62.2395L66.8934 64.8612L48.8589 46.8267L51.4806 44.205C52.4938 43.1916 53.8411 42.6335 55.2742 42.6335C56.7072 42.6335 58.0545 43.1916 59.0678 44.205L69.5149 54.6523C70.5284 55.6656 71.0864 57.013 71.0864 58.4459C71.0864 59.879 70.5285 61.2264 69.5151 62.2395Z" fill="#EA1D2C"/>
<path d="M23.7227 21.6905C23.4539 21.4203 23.0811 21.2671 22.7011 21.2671C22.321 21.2671 21.9482 21.4203 21.6794 21.6905C21.4106 21.9593 21.256 22.3309 21.256 22.7122C21.256 23.0923 21.4106 23.4651 21.6794 23.7339C21.9482 24.0027 22.321 24.1573 22.7011 24.1573C23.0811 24.1573 23.4539 24.0027 23.7227 23.7339C23.9915 23.4651 24.1461 23.0923 24.1461 22.7122C24.1461 22.3322 23.9915 21.9593 23.7227 21.6905Z" fill="#EA1D2C"/>
<path d="M60.911 10.4385C60.7405 7.96053 58.7431 5.9633 56.2652 5.79249C54.8598 5.69697 53.5209 6.16965 52.4949 7.12745C51.4832 8.0718 50.9029 9.40691 50.9029 10.7907C50.9029 11.5887 51.5498 12.2358 52.3479 12.2358C53.146 12.2358 53.793 11.5887 53.793 10.7907C53.793 10.1966 54.0323 9.64592 54.467 9.24029C54.9009 8.83509 55.4683 8.63524 56.0665 8.67599C57.1126 8.74795 57.9558 9.5913 58.0278 10.6374C58.1008 11.695 57.4074 12.6297 56.3795 12.8598C55.254 13.1112 54.4679 14.0898 54.4679 15.2391V17.8419C54.4679 18.6399 55.1148 19.287 55.9129 19.287C56.711 19.287 57.358 18.6399 57.358 17.8419V15.5895C59.597 14.9216 61.0746 12.8108 60.911 10.4385Z" fill="#EA1D2C"/>
<path d="M56.9349 21.9622C56.6661 21.6934 56.2933 21.5403 55.9132 21.5403C55.5332 21.5403 55.1604 21.6936 54.8916 21.9622C54.6228 22.2324 54.4682 22.6038 54.4682 22.9853C54.4682 23.3654 54.6228 23.7382 54.8916 24.007C55.1604 24.2758 55.5332 24.4304 55.9132 24.4304C56.2933 24.4304 56.6661 24.2759 56.9349 24.007C57.2037 23.7381 57.3583 23.3654 57.3583 22.9853C57.3583 22.6038 57.2037 22.2324 56.9349 21.9622Z" fill="#EA1D2C"/>
<path d="M66.7512 0H45.0751C41.091 0 37.8497 3.2413 37.8497 7.22537V23.6953C37.8497 27.6794 41.091 30.9207 45.0751 30.9207H50.5555L54.7857 36.429C55.0593 36.7852 55.4828 36.9939 55.9318 36.9939C55.9327 36.9939 55.9335 36.9939 55.9344 36.9939C56.3844 36.993 56.8082 36.7826 57.0811 36.4248L61.2764 30.9207H66.7511C70.7351 30.9207 73.9764 27.6794 73.9764 23.6953V7.22537C73.9766 3.2413 70.7354 0 66.7512 0ZM71.0867 23.6953H71.0864C71.0864 26.0857 69.1416 28.0305 66.7512 28.0305H60.5611C60.1102 28.0305 59.6851 28.2409 59.4118 28.5996L55.9277 33.1706L52.4142 28.5954C52.1406 28.2392 51.7171 28.0305 51.2681 28.0305H45.0754C42.6849 28.0305 40.7402 26.0857 40.7402 23.6953V7.22537C40.7402 4.83493 42.6849 2.89015 45.0754 2.89015H66.7515C69.1419 2.89015 71.0867 4.83493 71.0867 7.22537V23.6953Z" fill="#EA1D2C"/>
</svg>
