<?xml version="1.0" encoding="utf-8"?>
<!-- Generator: Adobe Illustrator 16.0.0, SVG Export Plug-In . SVG Version: 6.00 Build 0)  -->
<!DOCTYPE svg PUBLIC "-//W3C//DTD SVG 1.1//EN" "http://www.w3.org/Graphics/SVG/1.1/DTD/svg11.dtd">
<svg version="1.1" id="Camada_1" xmlns="http://www.w3.org/2000/svg" xmlns:xlink="http://www.w3.org/1999/xlink" x="0px" y="0px"
	 width="185px" height="160px" viewBox="0 0 185 160" enable-background="new 0 0 185 160" xml:space="preserve">
<g>
	<g>
		<path fill="#FC6B0A" d="M92.682,139.38c52.533,0,74.208-28.287,77.331-32.695l14.878,8.449
			c-18.735,26.818-47.758,44.451-92.209,44.451c-44.635,0-73.473-17.633-92.393-44.451l15.063-8.449
			C18.474,111.093,39.964,139.38,92.682,139.38z"/>
	</g>
</g>
<g>
	<path fill="#FC6B0A" d="M61.859,61.026l19.137,28.29H66.376L48.903,63.403H28.102v25.912H14.907V63.403V52.467V11.102V0.167h13.194
		h21.396c17.474,0.119,31.5,13.669,31.5,31.618C80.997,45.335,73.151,56.271,61.859,61.026z M28.102,52.467h21.277
		c10.104,0,18.424-8.558,18.424-20.683c0-12.005-8.321-20.683-18.424-20.683H28.102V52.467z"/>
	<path fill="#FC6B0A" d="M135.793,80.163c-3.091,7.014-11.293,11.53-21.516,11.53c0,0,0,0-0.118,0
		c-8.202,0-15.69-3.447-21.277-8.915l7.963-7.964c3.328,4.279,8.084,6.418,13.313,6.418c5.824,0,10.698-2.139,12.005-5.229
		c0.832-2.14,0.119-4.398,0.119-4.636c-1.426-3.566-6.775-4.992-12.6-6.657c-7.488-2.258-15.928-5.111-19.019-13.432
		c-1.546-4.279-1.069-9.271,1.069-13.432c4.874-9.153,16.998-9.509,18.425-9.509c8.202,0,15.928,3.09,21.396,8.677l-7.964,7.964
		c-3.328-4.279-8.202-6.181-13.432-6.181c-0.119,0-7.132,0.119-9.153,4.042c-0.713,1.188-1.069,3.209-0.475,4.874
		c1.188,3.328,6.537,4.754,12.242,6.538c7.607,2.258,16.166,5.111,19.257,13.432C136.268,68.396,138.289,74.22,135.793,80.163z"/>
	<path fill="#FC6B0A" d="M168.004,82.065c0,4.754-3.686,8.439-8.439,8.439c-4.637,0-8.321-3.686-8.321-8.439
		c0-4.517,3.685-8.202,8.321-8.202C164.318,73.863,168.004,77.548,168.004,82.065z"/>
</g>
</svg>
